<?xml version="1.0" encoding="UTF-8"?>
<svg xmlns="http://www.w3.org/2000/svg" xmlns:xlink="http://www.w3.org/1999/xlink" width="3000" height="3000" viewBox="0 0 3000 3000">
<path fill-rule="nonzero" fill="rgb(6.687927%, 9.397888%, 27.488708%)" fill-opacity="1" d="M 2781.78125 1996.769531 C 2777.910156 1987.648438 2768.519531 1982.191406 2758.679688 1983.269531 C 2748.839844 1984.378906 2740.921875 1991.851562 2739.210938 2001.601562 C 2735.671875 2021.789062 2724.601562 2040.511719 2709.238281 2054.28125 C 2716.289062 2001.808594 2708.910156 1946.730469 2687.371094 1895.039062 C 2660.039062 1829.429688 2611.230469 1773.511719 2549.878906 1737.570312 C 2541.808594 1732.859375 2531.699219 1733.640625 2524.46875 1739.550781 C 2517.238281 1745.460938 2514.449219 1755.210938 2517.449219 1764.058594 C 2523.808594 1782.75 2526.03125 1802.910156 2524.199219 1822.648438 C 2476.441406 1775.21875 2404.949219 1748.429688 2327.910156 1750.859375 C 2235.03125 1753.800781 2149.738281 1796.308594 2093.699219 1828.019531 C 2085.480469 1832.671875 2081.070312 1841.96875 2082.691406 1851.238281 C 2084.28125 1860.539062 2091.539062 1867.828125 2100.839844 1869.449219 C 2184.511719 1884.210938 2255.070312 1943.128906 2284.980469 2023.261719 C 2313.238281 2098.949219 2304.691406 2188.621094 2262.121094 2263.140625 C 2227.109375 2324.398438 2169.148438 2375.191406 2100.210938 2405.878906 C 2101.859375 2353.738281 2097.871094 2300.699219 2088.089844 2247.988281 C 2081.160156 2210.550781 2070.269531 2167.589844 2042.191406 2132.789062 C 2019.269531 2104.378906 1979.910156 2080.589844 1938.179688 2083.648438 C 1938.210938 2079.480469 1938.328125 2075.308594 1938.359375 2071.140625 C 1939.621094 1839.988281 1912.5 1611.71875 1857.839844 1392.179688 C 1866.78125 1386.839844 1875.449219 1380.929688 1883.699219 1374.269531 C 1939.171875 1329.390625 1973.671875 1253.878906 1983.421875 1155.839844 C 1986.75 1122.449219 1987.46875 1088.730469 1988.160156 1056.121094 C 1988.851562 1024.648438 1989.511719 994.410156 1992.300781 964.589844 C 2020.109375 981.390625 2050.410156 990.390625 2079.539062 990.390625 C 2085.601562 990.390625 2091.601562 990 2097.511719 989.21875 C 2134.171875 984.359375 2170.769531 963.839844 2200.558594 931.46875 C 2226.628906 903.121094 2244.660156 870.089844 2260.859375 838.710938 C 2283.898438 794.128906 2312.671875 734.699219 2330.820312 670.378906 C 2348.101562 609.179688 2326.949219 544.171875 2276.910156 504.78125 C 2194.320312 439.738281 2091.570312 400.648438 1986.71875 394.050781 C 1982.878906 384.898438 1978.949219 375.78125 1974.839844 366.75 C 1963.53125 341.789062 1949.25 312.871094 1929.210938 287.910156 C 1906.710938 259.859375 1879.441406 240.121094 1850.339844 230.761719 C 1810.019531 217.828125 1763.398438 223.921875 1722.449219 247.53125 C 1695.359375 263.128906 1670.910156 285.960938 1649.550781 315.570312 C 1545.839844 238.019531 1423.980469 190.320312 1295.671875 177.269531 C 1169.640625 164.460938 1038.421875 186.808594 923.371094 240.300781 C 898.289062 188.339844 842.429688 148.441406 781.53125 141.628906 C 718.289062 134.550781 650.101562 160.109375 599.128906 209.96875 C 579.238281 229.441406 561.871094 252.300781 547.019531 278.339844 C 462.269531 282.691406 377.519531 305.339844 301.140625 344.25 C 239.761719 375.511719 198.148438 437.371094 192.511719 505.679688 C 183.839844 610.589844 205.648438 714.421875 255.539062 805.921875 C 284.730469 859.441406 317.761719 894.421875 356.578125 912.871094 C 376.769531 922.46875 401.371094 928.078125 428.070312 928.078125 C 445.378906 928.078125 463.558594 925.710938 481.980469 920.550781 C 479.851562 1038.601562 480.359375 1159.710938 516.390625 1275.960938 C 529.199219 1317.300781 544.019531 1348.230469 563.039062 1373.339844 C 570.089844 1382.640625 579.75 1392.148438 591.71875 1401.601562 C 624.238281 1427.25 664.199219 1443.421875 707.550781 1448.550781 C 650.640625 1653.78125 626.339844 1867.140625 635.21875 2083.648438 C 599.519531 2086.621094 567 2107.949219 546.988281 2132.730469 C 518.878906 2167.53125 508.019531 2210.488281 501.089844 2247.929688 C 481.46875 2353.921875 485.039062 2461.378906 511.351562 2559.929688 C 480.871094 2576.039062 452.371094 2593.980469 430.558594 2621.128906 C 404.28125 2653.828125 388.769531 2706.210938 413.339844 2749.53125 C 437.371094 2791.921875 488.039062 2805.601562 524.070312 2812.199219 C 567.691406 2820.179688 612.421875 2824.171875 657.179688 2824.171875 C 704.730469 2824.171875 752.308594 2819.609375 798.570312 2810.609375 C 801.269531 2814.03125 804.929688 2816.671875 809.160156 2818.050781 C 893.011719 2845.378906 982.46875 2859.421875 1071.121094 2859.421875 C 1092 2859.421875 1112.851562 2858.640625 1133.550781 2857.078125 C 1172.339844 2854.140625 1227.121094 2845.230469 1254.570312 2801.941406 C 1259.851562 2793.628906 1263.539062 2784.839844 1265.851562 2775.839844 C 1278.421875 2776.710938 1291.019531 2777.160156 1303.621094 2777.160156 C 1314.511719 2777.160156 1325.429688 2776.800781 1336.289062 2776.140625 C 1341.480469 2801.519531 1355.25 2822.488281 1375.410156 2835.300781 C 1397.160156 2849.160156 1422.421875 2851.800781 1444.410156 2853.210938 C 1468.738281 2854.738281 1492.351562 2855.519531 1515.328125 2855.519531 C 1617.121094 2855.519531 1706.011719 2840.25 1784.488281 2809.410156 C 1832.671875 2819.21875 1882.351562 2824.140625 1932 2824.140625 C 1976.761719 2824.140625 2021.519531 2820.148438 2065.109375 2812.171875 C 2101.140625 2805.570312 2151.808594 2791.890625 2175.808594 2749.5 C 2196.601562 2712.808594 2188.679688 2669.671875 2169.808594 2637.421875 C 2182.738281 2638.5 2195.96875 2639.039062 2209.53125 2639.039062 C 2311.558594 2639.039062 2430.988281 2608.738281 2566.171875 2548.410156 C 2575.769531 2544.121094 2581.078125 2533.738281 2578.949219 2523.449219 C 2576.820312 2513.160156 2567.789062 2505.75 2557.289062 2505.660156 C 2536.589844 2505.480469 2516.070312 2502.089844 2496.449219 2495.820312 C 2596.890625 2479.261719 2687.429688 2425.621094 2743.648438 2346.449219 C 2814.480469 2246.761719 2829.449219 2109.480469 2781.78125 1996.769531 Z M 619.410156 1366.589844 C 610.53125 1359.570312 603.328125 1352.578125 598.648438 1346.398438 C 582.871094 1325.550781 570.269531 1299 559.050781 1262.761719 C 523.171875 1146.988281 524.640625 1022.789062 526.980469 902.21875 C 543.78125 893.101562 560.398438 881.429688 576.269531 866.699219 C 633.390625 813.839844 664.320312 741.359375 688.828125 677.578125 C 732.839844 563.101562 768.328125 444.03125 802.621094 328.921875 C 802.621094 328.921875 690.511719 548.699219 647.128906 661.558594 C 624.421875 720.628906 595.980469 787.558594 545.910156 833.910156 C 504.808594 871.949219 434.039062 900.269531 375.71875 872.519531 C 345.71875 858.269531 319.230469 829.46875 294.71875 784.53125 C 249 700.679688 229.050781 605.519531 236.96875 509.339844 C 241.351562 456.328125 273.691406 408.328125 321.359375 384.03125 C 384.78125 351.71875 454.351562 331.53125 524.578125 324.75 C 517.890625 341.339844 511.980469 358.859375 506.96875 377.371094 C 490.558594 437.851562 524.28125 564.511719 524.28125 564.511719 C 529.410156 506.101562 534.71875 445.738281 550.078125 389.070312 C 566.941406 326.96875 593.910156 277.441406 630.300781 241.859375 C 671.789062 201.269531 726.421875 180.390625 776.488281 186 C 829.351562 191.910156 876.871094 230.128906 889.53125 276.871094 C 891.300781 283.378906 895.890625 288.71875 902.039062 291.449219 C 908.191406 294.179688 915.238281 294 921.238281 290.941406 C 1033.921875 233.460938 1165.261719 208.859375 1291.078125 221.640625 C 1418.851562 234.628906 1539.78125 284.308594 1640.789062 365.28125 C 1645.800781 369.300781 1652.28125 370.949219 1658.609375 369.871094 C 1664.941406 368.761719 1670.460938 365.011719 1673.820312 359.550781 C 1694.28125 326.160156 1718.128906 301.46875 1744.679688 286.199219 C 1774.320312 269.128906 1808.671875 264.300781 1836.628906 273.269531 C 1862.820312 281.671875 1882.441406 301.050781 1894.289062 315.808594 C 1911.179688 336.871094 1923.390625 361.589844 1934.070312 385.140625 C 1969.589844 463.53125 1994.878906 546.269531 2009.308594 631.078125 C 2009.308594 631.078125 2026.46875 499.828125 2004.808594 440.371094 C 2093.339844 449.96875 2179.199219 484.679688 2249.191406 539.820312 C 2284.949219 567.988281 2300.101562 614.460938 2287.738281 658.171875 C 2274.421875 705.328125 2253.871094 754.648438 2221.078125 818.128906 C 2206.261719 846.839844 2189.910156 876.898438 2167.589844 901.171875 C 2144.878906 925.859375 2117.878906 941.398438 2091.539062 944.878906 C 2061.300781 948.871094 2027.101562 937.648438 1997.730469 914.070312 C 1967.761719 889.980469 1945.828125 856.769531 1928.308594 827.460938 C 1851.929688 699.539062 1756.921875 406.441406 1756.921875 406.441406 C 1763.820312 562.621094 1809.808594 716.128906 1889.941406 850.378906 C 1905.839844 877.019531 1925.21875 906.691406 1950.988281 932.160156 C 1945.199219 973.351562 1944.238281 1014.871094 1943.371094 1055.128906 C 1942.679688 1086.871094 1941.988281 1119.71875 1938.839844 1151.371094 C 1932.871094 1211.25 1913.550781 1292.488281 1855.46875 1339.5 C 1806.03125 1379.488281 1738.410156 1388.941406 1667.671875 1395.78125 C 1563.300781 1405.859375 1466.460938 1413 1372.171875 1417.648438 C 1372.230469 1417.320312 1372.289062 1416.988281 1372.351562 1416.628906 C 1378.949219 1376.371094 1378.230469 1335.78125 1376.671875 1296.179688 C 1400.96875 1295.039062 1425.058594 1288.710938 1446.660156 1277.128906 C 1493.910156 1251.78125 1526.910156 1202.941406 1532.730469 1149.628906 C 1532.730469 1149.628906 1468.679688 1228.441406 1431.300781 1248.480469 C 1393.921875 1268.519531 1345.441406 1268.878906 1307.761719 1249.410156 C 1277.851562 1233.960938 1254.269531 1205.699219 1243.171875 1173.660156 C 1305.269531 1158.75 1357.050781 1104.511719 1366.859375 1041.058594 C 1370.011719 1020.660156 1368.359375 997.589844 1354.019531 982.800781 C 1342.289062 970.738281 1324.710938 966.75 1308.089844 964.199219 C 1253.011719 955.710938 1196.519531 956.578125 1141.710938 966.71875 C 1126.289062 969.570312 1110.390625 973.46875 1098.449219 983.609375 C 1082.070312 997.5 1076.371094 1020.75 1077.871094 1042.171875 C 1080.359375 1077.898438 1100.429688 1111.140625 1128.238281 1133.730469 C 1150.078125 1151.488281 1175.851562 1170.210938 1202.578125 1175.640625 C 1195.648438 1212.839844 1172.339844 1245.75 1139.039062 1263.359375 C 1099.648438 1284.179688 1047.929688 1282.050781 1010.339844 1258.078125 C 972.78125 1234.109375 918.898438 1141.921875 918.898438 1141.921875 C 915.988281 1198.589844 945 1254.960938 992.851562 1285.5 C 1016.488281 1300.589844 1043.910156 1308.78125 1071.660156 1310.070312 C 1070.191406 1343.21875 1072.050781 1384.019531 1079.578125 1423.648438 C 955.769531 1422.390625 837.058594 1416.238281 717.390625 1404.78125 C 680.488281 1401.238281 646.589844 1388.039062 619.410156 1366.589844 Z M 1224.121094 1386.660156 L 1239.179688 1233.511719 C 1253.640625 1251.960938 1271.910156 1267.46875 1292.910156 1278.328125 C 1308.988281 1286.640625 1326.359375 1292.039062 1344.148438 1294.648438 C 1345.710938 1333.53125 1346.578125 1373.28125 1340.339844 1411.441406 C 1335.089844 1443.480469 1322.011719 1488.691406 1289.488281 1521.929688 C 1265.851562 1546.078125 1235.699219 1552.140625 1191.78125 1541.519531 C 1119.121094 1523.96875 1099.980469 1392.121094 1104.359375 1308.421875 C 1121.699219 1305.78125 1138.648438 1300.410156 1154.308594 1292.160156 C 1175.191406 1281.121094 1192.949219 1265.339844 1206.628906 1246.53125 Z M 675.449219 2779.289062 C 671.820312 2754.898438 668.191406 2730.511719 664.558594 2706.121094 C 656.96875 2730.960938 647.941406 2755.378906 637.679688 2779.261719 C 612.78125 2778.570312 587.96875 2776.589844 563.429688 2773.261719 C 561.78125 2750.519531 560.101562 2727.75 558.449219 2705.011719 C 545.671875 2724.570312 534.960938 2745.449219 526.441406 2767.199219 C 499.859375 2761.921875 465.988281 2751.871094 452.191406 2727.539062 C 438.03125 2702.578125 449.101562 2669.398438 465.390625 2649.148438 C 485.488281 2624.160156 515.878906 2607.570312 547.890625 2591.398438 C 557.550781 2586.511719 562.320312 2575.441406 559.230469 2565.058594 C 530.398438 2468.460938 525.480469 2361.601562 545.011719 2256.089844 C 550.921875 2224.171875 559.921875 2187.871094 581.730469 2160.839844 C 594.421875 2145.121094 615.449219 2130.75 637.53125 2128.410156 C 651.269531 2350.621094 699.269531 2565.78125 780.328125 2768.640625 C 745.890625 2774.851562 710.699219 2778.390625 675.449219 2779.289062 Z M 1578.601562 2808.660156 C 1576.949219 2779.621094 1575.300781 2750.550781 1573.648438 2721.511719 C 1557.839844 2748.359375 1548.988281 2779.199219 1547.878906 2810.339844 C 1525.921875 2811.121094 1503.238281 2811.03125 1479.871094 2810.25 C 1473.539062 2783.878906 1471.679688 2756.398438 1474.621094 2729.429688 C 1460.25 2753.519531 1451.460938 2780.851562 1448.789062 2808.78125 C 1448.25 2808.75 1447.738281 2808.71875 1447.171875 2808.691406 C 1429.980469 2807.609375 1412.160156 2805.839844 1399.320312 2797.710938 C 1386.238281 2789.398438 1381.378906 2775.71875 1379.609375 2765.699219 C 1375.890625 2744.789062 1381.921875 2720.25 1394.96875 2703.148438 C 1419.058594 2671.589844 1457.671875 2654.941406 1505.671875 2636.488281 C 1514.128906 2633.21875 1519.800781 2625.179688 1519.980469 2616.089844 C 1523.070312 2466.449219 1510.078125 2308.648438 1481.429688 2147.070312 C 1481.429688 2147.070312 1477.46875 2457.960938 1475.550781 2600.21875 C 1435.441406 2615.96875 1389.511719 2636.578125 1359.421875 2676.03125 C 1347.300781 2691.898438 1339.199219 2711.398438 1335.75 2731.46875 C 1312.828125 2732.941406 1289.789062 2732.851562 1266.871094 2731.171875 C 1262.308594 2706.148438 1249.769531 2682.390625 1233.480469 2664.839844 C 1212.691406 2642.460938 1187.308594 2627.789062 1162.769531 2613.570312 C 1155.601562 2609.429688 1148.699219 2605.410156 1142.039062 2601.328125 L 1111.980469 2188.5 L 1097.011719 2612.488281 C 1096.738281 2620.199219 1100.460938 2627.519531 1106.878906 2631.808594 C 1117.828125 2639.160156 1129.320312 2645.820312 1140.449219 2652.269531 C 1163.160156 2665.410156 1184.578125 2677.828125 1200.808594 2695.289062 C 1220.550781 2716.53125 1232.878906 2752.769531 1216.828125 2778.058594 C 1209.179688 2790.089844 1196.160156 2798.851562 1176.929688 2804.671875 C 1176.539062 2802.210938 1175.941406 2799.75 1175.28125 2797.378906 C 1169.488281 2777.28125 1158.871094 2758.589844 1144.589844 2743.320312 C 1149.511719 2765.519531 1149.660156 2788.738281 1145.25 2811.058594 C 1140.449219 2811.660156 1135.46875 2812.171875 1130.191406 2812.558594 C 1113.871094 2813.789062 1097.429688 2814.480469 1080.960938 2814.660156 C 1075.828125 2789.160156 1064.699219 2764.859375 1048.46875 2744.519531 C 1052.460938 2767.589844 1052.160156 2791.378906 1047.808594 2814.390625 C 974.941406 2812.261719 901.921875 2800.230469 832.710938 2778.691406 C 746.25 2571.089844 695.519531 2349.929688 681.871094 2121.121094 C 668.25 1893.089844 692.21875 1668.328125 752.910156 1452.839844 C 864.328125 1462.46875 975.449219 1467.601562 1091.128906 1468.5 C 1107.871094 1519.351562 1136.820312 1561.648438 1184.160156 1573.109375 C 1200.210938 1576.980469 1215.179688 1578.929688 1229.101562 1578.929688 C 1262.730469 1578.929688 1290.328125 1567.558594 1312.738281 1544.671875 C 1333.769531 1523.191406 1350.121094 1495.441406 1361.039062 1463.011719 C 1460.28125 1458.359375 1562.039062 1450.949219 1672.050781 1440.300781 C 1720.949219 1435.589844 1771.199219 1429.140625 1816.648438 1411.890625 C 1868.910156 1625.070312 1894.828125 1846.589844 1893.601562 2070.898438 C 1892.308594 2303.550781 1861.921875 2532.898438 1803.269531 2752.679688 C 1737.71875 2784.121094 1663.410156 2802.628906 1578.601562 2808.660156 Z M 2136.929688 2727.570312 C 2128.53125 2742.421875 2112.660156 2751.929688 2095.5 2758.289062 C 2095.410156 2749.621094 2092.441406 2740.859375 2088.210938 2733.179688 C 2082.359375 2722.5 2074.320312 2713.230469 2067.691406 2703.03125 C 2072.519531 2723.640625 2072.671875 2745.300781 2068.441406 2766.058594 C 2064.511719 2766.929688 2060.671875 2767.679688 2057.039062 2768.339844 C 2041.921875 2771.101562 2026.679688 2773.320312 2011.320312 2775.089844 C 2008.980469 2753.578125 2000.878906 2732.699219 1987.828125 2715.421875 C 1990.109375 2736.179688 1988.699219 2757.328125 1983.898438 2777.671875 C 1937.28125 2781.121094 1890.121094 2779.921875 1843.828125 2774.070312 C 1900.289062 2565.75 1931.640625 2348.941406 1937.339844 2128.800781 C 1964.308594 2124.78125 1992 2141.851562 2007.390625 2160.929688 C 2029.230469 2187.960938 2038.199219 2224.261719 2044.140625 2256.179688 C 2063.671875 2361.691406 2058.78125 2468.550781 2029.921875 2565.148438 C 2026.828125 2575.53125 2031.601562 2586.601562 2041.261719 2591.488281 C 2073.269531 2607.660156 2103.660156 2624.25 2123.761719 2649.238281 C 2139.988281 2669.429688 2151.058594 2702.578125 2136.929688 2727.570312 Z M 2707.199219 2320.679688 C 2644.980469 2408.28125 2534.398438 2460.390625 2418.269531 2456.460938 C 2408.609375 2456.160156 2399.878906 2462.039062 2396.550781 2471.101562 C 2393.21875 2480.160156 2396.101562 2490.300781 2403.628906 2496.300781 C 2425.890625 2513.941406 2451 2527.589844 2477.699219 2536.769531 C 2302.351562 2603.371094 2187.121094 2600.761719 2118.300781 2584.289062 C 2105.519531 2575.320312 2091.871094 2567.429688 2077.769531 2559.988281 C 2086.828125 2526.089844 2093.128906 2491.109375 2096.789062 2455.5 C 2183.671875 2422.46875 2257.589844 2361.058594 2300.878906 2285.308594 C 2349.960938 2199.390625 2359.648438 2095.589844 2326.828125 2007.628906 C 2298.269531 1931.128906 2238.390625 1870.949219 2164.261719 1841.308594 C 2211.328125 1818.601562 2269.199219 1797.421875 2329.351562 1795.5 C 2407.679688 1793.011719 2481 1827.511719 2516.070312 1883.398438 C 2520.511719 1890.480469 2528.519531 1894.46875 2536.890625 1893.78125 C 2545.230469 1893.058594 2552.460938 1887.78125 2555.671875 1880.039062 C 2565.238281 1856.851562 2569.859375 1831.558594 2569.5 1806.359375 C 2602.710938 1835.128906 2629.230469 1871.519531 2646.179688 1912.230469 C 2670.480469 1970.550781 2673.839844 2033.550781 2655.628906 2089.648438 C 2653.109375 2097.390625 2655.03125 2105.878906 2660.578125 2111.820312 C 2666.160156 2117.761719 2674.5 2120.191406 2682.390625 2118.179688 C 2712.570312 2110.46875 2739.03125 2092.109375 2757.570312 2067.660156 C 2776.320312 2154 2758.410156 2248.53125 2707.199219 2320.679688 Z M 1471.558594 823.589844 C 1471.558594 757.410156 1517.941406 703.738281 1575.148438 703.738281 C 1632.359375 703.738281 1678.738281 757.378906 1678.738281 823.589844 C 1678.738281 889.769531 1632.359375 943.441406 1575.148438 943.441406 C 1517.941406 943.441406 1471.558594 889.769531 1471.558594 823.589844 Z M 792.03125 823.589844 C 792.03125 757.410156 838.410156 703.738281 895.621094 703.738281 C 952.828125 703.738281 999.210938 757.378906 999.210938 823.589844 C 999.210938 889.769531 952.828125 943.441406 895.621094 943.441406 C 838.410156 943.441406 792.03125 889.769531 792.03125 823.589844 Z M 1483.949219 568.859375 C 1499.191406 537.960938 1534.738281 520.378906 1570.078125 522.78125 C 1602.179688 524.96875 1632.210938 543.511719 1650.269531 569.96875 C 1656.898438 579.660156 1646.371094 591.898438 1635.660156 587.128906 C 1592.941406 568.109375 1542.121094 567.121094 1498.859375 584.910156 C 1488.960938 588.929688 1479.210938 578.398438 1483.949219 568.859375 Z M 823.679688 569.941406 C 841.738281 543.480469 871.769531 524.941406 903.871094 522.75 C 939.210938 520.351562 974.761719 537.960938 990 568.828125 C 994.710938 578.398438 984.960938 588.929688 975.121094 584.878906 C 931.859375 567.089844 881.039062 568.078125 838.320312 587.101562 C 827.578125 591.898438 817.078125 579.660156 823.679688 569.941406 "/>
<path fill-rule="nonzero" fill="rgb(87.5%, 55.271912%, 64.256287%)" fill-opacity="1" d="M 1239.179688 1233.539062 L 1224.121094 1386.691406 L 1206.628906 1246.53125 C 1192.949219 1265.339844 1175.191406 1281.121094 1154.308594 1292.160156 C 1138.648438 1300.441406 1121.699219 1305.808594 1104.359375 1308.421875 C 1099.980469 1392.121094 1119.121094 1523.941406 1191.78125 1541.519531 C 1235.699219 1552.140625 1265.851562 1546.109375 1289.488281 1521.929688 C 1322.011719 1488.691406 1335.089844 1443.480469 1340.339844 1411.441406 C 1346.578125 1373.28125 1345.710938 1333.53125 1344.148438 1294.648438 C 1326.359375 1292.039062 1308.988281 1286.671875 1292.910156 1278.328125 C 1271.910156 1267.46875 1253.671875 1251.988281 1239.179688 1233.539062 "/>
<path fill-rule="nonzero" fill="rgb(92.576599%, 56.834412%, 28.196716%)" fill-opacity="1" d="M 637.53125 2128.441406 C 651.269531 2350.648438 699.269531 2565.808594 780.328125 2768.671875 C 745.859375 2774.851562 710.699219 2778.359375 675.421875 2779.289062 C 671.789062 2754.898438 668.160156 2730.511719 664.53125 2706.121094 C 656.941406 2730.960938 647.910156 2755.378906 637.648438 2779.261719 C 612.75 2778.570312 587.941406 2776.589844 563.398438 2773.261719 C 561.75 2750.519531 560.070312 2727.75 558.421875 2705.011719 C 545.640625 2724.570312 534.929688 2745.449219 526.410156 2767.199219 C 499.828125 2761.921875 465.960938 2751.871094 452.160156 2727.539062 C 438 2702.578125 449.070312 2669.398438 465.359375 2649.148438 C 485.460938 2624.160156 515.851562 2607.570312 547.859375 2591.398438 C 557.519531 2586.511719 562.289062 2575.441406 559.199219 2565.058594 C 530.371094 2468.460938 525.449219 2361.601562 544.980469 2256.089844 C 550.890625 2224.171875 559.890625 2187.871094 581.699219 2160.839844 C 594.421875 2145.148438 615.449219 2130.78125 637.53125 2128.441406 Z M 2287.828125 658.261719 C 2274.511719 705.421875 2253.960938 754.738281 2221.171875 818.21875 C 2206.351562 846.898438 2189.96875 876.960938 2167.679688 901.199219 C 2144.96875 925.949219 2117.96875 941.460938 2091.628906 944.941406 C 2061.359375 948.929688 2027.191406 937.710938 1997.820312 914.101562 C 1967.851562 890.011719 1945.890625 856.769531 1928.398438 827.460938 C 1852.019531 699.539062 1757.011719 406.441406 1757.011719 406.441406 C 1763.878906 562.621094 1809.898438 716.101562 1890 850.351562 C 1905.929688 876.988281 1925.308594 906.660156 1951.050781 932.160156 C 1945.289062 973.320312 1944.300781 1014.871094 1943.460938 1055.128906 C 1942.769531 1086.898438 1942.078125 1119.71875 1938.898438 1151.371094 C 1932.929688 1211.25 1913.640625 1292.488281 1855.53125 1339.5 C 1806.089844 1379.519531 1738.46875 1388.941406 1667.730469 1395.808594 C 1563.328125 1405.890625 1466.519531 1413.03125 1372.199219 1417.648438 C 1372.230469 1417.320312 1372.320312 1416.988281 1372.351562 1416.628906 C 1378.980469 1376.371094 1378.230469 1335.78125 1376.699219 1296.179688 C 1401.03125 1295.039062 1425.089844 1288.738281 1446.691406 1277.128906 C 1493.941406 1251.78125 1526.910156 1202.941406 1532.761719 1149.660156 C 1532.761719 1149.660156 1521.898438 1163.011719 1506.511719 1180.171875 C 1484.519531 1204.589844 1453.289062 1236.71875 1431.328125 1248.511719 C 1393.949219 1268.550781 1345.441406 1268.910156 1307.789062 1249.441406 C 1277.878906 1233.960938 1254.300781 1205.730469 1243.199219 1173.691406 C 1305.300781 1158.808594 1357.050781 1104.539062 1366.890625 1041.089844 C 1370.011719 1020.691406 1368.390625 997.621094 1354.019531 982.828125 C 1342.320312 970.769531 1324.738281 966.78125 1308.121094 964.230469 C 1253.039062 955.738281 1196.519531 956.640625 1141.738281 966.75 C 1126.351562 969.628906 1110.421875 973.5 1098.480469 983.640625 C 1082.101562 997.53125 1076.429688 1020.78125 1077.871094 1042.171875 C 1080.390625 1077.929688 1100.460938 1111.140625 1128.238281 1133.730469 C 1150.078125 1151.488281 1175.851562 1170.210938 1202.609375 1175.640625 C 1195.648438 1212.839844 1172.339844 1245.75 1139.070312 1263.328125 C 1099.679688 1284.179688 1047.898438 1282.019531 1010.371094 1258.050781 C 989.21875 1244.550781 962.910156 1209.480469 943.949219 1181.339844 C 929.25 1159.5 918.929688 1141.859375 918.929688 1141.859375 C 916.019531 1198.53125 945 1254.898438 992.851562 1285.410156 C 1016.488281 1300.53125 1043.910156 1308.691406 1071.660156 1309.980469 C 1070.191406 1343.160156 1072.019531 1383.960938 1079.578125 1423.558594 C 955.769531 1422.300781 837.058594 1416.179688 717.390625 1404.71875 C 680.429688 1401.148438 646.5 1387.949219 619.320312 1366.5 C 610.410156 1359.511719 603.238281 1352.519531 598.558594 1346.308594 C 582.75 1325.460938 570.179688 1298.910156 558.960938 1262.699219 C 523.078125 1146.929688 524.550781 1022.699219 526.921875 902.191406 C 543.75 893.039062 560.308594 881.398438 576.179688 866.699219 C 633.300781 813.808594 664.261719 741.328125 688.800781 677.550781 C 732.78125 563.070312 768.269531 444 802.589844 328.890625 C 802.589844 328.890625 690.480469 548.671875 647.101562 661.5 C 624.390625 720.601562 595.949219 787.5 545.878906 833.851562 C 504.808594 871.921875 434.011719 900.238281 375.660156 872.488281 C 345.691406 858.238281 319.199219 829.46875 294.691406 784.5 C 249.03125 700.738281 229.078125 605.609375 237 509.398438 C 241.378906 456.390625 273.71875 408.359375 321.421875 384.089844 C 384.839844 351.808594 454.410156 331.621094 524.609375 324.808594 C 517.949219 341.429688 512.070312 358.921875 507.03125 377.460938 C 490.621094 437.941406 524.339844 564.570312 524.339844 564.570312 C 529.5 506.191406 534.78125 445.800781 550.171875 389.160156 C 567 327.058594 594 277.53125 630.359375 241.949219 C 671.851562 201.359375 726.511719 180.449219 776.550781 186.058594 C 829.410156 192 876.929688 230.21875 889.558594 276.960938 C 891.359375 283.46875 895.949219 288.808594 902.070312 291.539062 C 908.25 294.269531 915.269531 294.058594 921.269531 291 C 970.679688 265.800781 1023.628906 246.929688 1078.199219 234.78125 C 1148.039062 219.148438 1220.460938 214.558594 1291.140625 221.699219 C 1324.53125 225.121094 1357.46875 231 1389.691406 239.339844 C 1480.710938 262.828125 1566.179688 305.550781 1640.820312 365.339844 C 1645.859375 369.359375 1652.308594 371.039062 1658.640625 369.929688 C 1664.941406 368.820312 1670.488281 365.070312 1673.820312 359.609375 C 1694.28125 326.21875 1718.128906 301.53125 1744.710938 286.261719 C 1774.320312 269.191406 1808.699219 264.359375 1836.628906 273.300781 C 1862.820312 281.699219 1882.441406 301.078125 1894.320312 315.871094 C 1911.179688 336.898438 1923.421875 361.621094 1934.101562 385.171875 C 1969.589844 463.558594 1994.910156 546.328125 2009.339844 631.140625 C 2009.339844 631.140625 2026.46875 499.890625 2004.839844 440.429688 C 2093.398438 450.058594 2179.230469 484.800781 2249.21875 539.910156 C 2285.011719 568.078125 2300.160156 614.550781 2287.828125 658.261719 Z M 838.320312 587.128906 C 881.011719 568.078125 931.828125 567.148438 975.089844 584.910156 C 984.960938 588.960938 994.710938 578.460938 990 568.859375 C 974.761719 537.988281 939.210938 520.410156 903.871094 522.78125 C 871.738281 524.941406 841.710938 543.511719 823.679688 569.941406 C 817.078125 579.628906 827.609375 591.898438 838.320312 587.128906 Z M 999.210938 823.589844 C 999.210938 757.410156 952.859375 703.738281 895.621094 703.738281 C 838.410156 703.738281 792.03125 757.410156 792.03125 823.589844 C 792.03125 889.800781 838.410156 943.441406 895.621094 943.441406 C 952.859375 943.410156 999.210938 889.800781 999.210938 823.589844 Z M 1498.800781 584.878906 C 1542.058594 567.121094 1592.878906 568.050781 1635.628906 587.101562 C 1646.339844 591.898438 1656.871094 579.628906 1650.238281 569.910156 C 1632.148438 543.449219 1602.148438 524.910156 1570.050781 522.75 C 1534.710938 520.351562 1499.160156 537.929688 1483.921875 568.828125 C 1479.238281 578.429688 1488.988281 588.960938 1498.800781 584.878906 Z M 1678.738281 823.589844 C 1678.738281 757.410156 1632.390625 703.738281 1575.148438 703.738281 C 1517.941406 703.738281 1471.558594 757.410156 1471.558594 823.589844 C 1471.558594 889.800781 1517.941406 943.441406 1575.148438 943.441406 C 1632.390625 943.410156 1678.738281 889.800781 1678.738281 823.589844 Z M 1838.25 1507.828125 C 1831.621094 1475.671875 1824.449219 1443.691406 1816.648438 1411.890625 C 1771.199219 1429.140625 1720.949219 1435.558594 1672.019531 1440.328125 C 1562.011719 1450.921875 1460.25 1458.359375 1361.011719 1463.011719 C 1350.089844 1495.46875 1333.710938 1523.21875 1312.710938 1544.699219 C 1290.300781 1567.621094 1262.699219 1578.929688 1229.070312 1578.929688 C 1215.148438 1578.929688 1200.179688 1576.980469 1184.101562 1573.109375 C 1136.761719 1561.648438 1107.808594 1519.320312 1091.070312 1468.5 C 975.390625 1467.601562 864.269531 1462.5 752.851562 1452.871094 C 748.378906 1468.710938 744.121094 1484.609375 740.039062 1500.511719 L 740.039062 1500.539062 C 688.828125 1701.390625 669.179688 1909.859375 681.78125 2121.121094 C 694.289062 2330.761719 737.910156 2534.011719 811.679688 2726.28125 L 811.679688 2726.308594 C 818.371094 2743.859375 825.359375 2761.320312 832.589844 2778.71875 C 901.800781 2800.261719 974.851562 2812.261719 1047.71875 2814.421875 C 1052.070312 2791.378906 1052.339844 2767.621094 1048.320312 2744.550781 C 1064.578125 2764.859375 1075.710938 2789.191406 1080.871094 2814.660156 C 1097.308594 2814.449219 1113.71875 2813.820312 1130.070312 2812.558594 C 1135.351562 2812.199219 1140.359375 2811.660156 1145.128906 2811.058594 C 1149.570312 2788.769531 1149.390625 2765.550781 1144.46875 2743.351562 C 1158.78125 2758.621094 1169.371094 2777.308594 1175.191406 2797.410156 C 1175.878906 2799.78125 1176.449219 2802.210938 1176.871094 2804.671875 C 1196.070312 2798.820312 1209.121094 2790.089844 1216.769531 2778.058594 C 1232.820312 2752.738281 1220.519531 2716.53125 1200.75 2695.261719 C 1184.488281 2677.800781 1163.039062 2665.410156 1140.390625 2652.238281 C 1129.261719 2645.820312 1117.769531 2639.160156 1106.789062 2631.78125 C 1102.289062 2628.71875 1099.078125 2624.191406 1097.730469 2619.03125 C 1097.128906 2616.929688 1096.890625 2614.710938 1096.949219 2612.488281 L 1111.890625 2188.46875 L 1116.238281 2248.019531 C 1116.238281 2248.050781 1116.238281 2248.050781 1116.238281 2248.109375 L 1142.039062 2601.359375 C 1148.671875 2605.410156 1155.570312 2609.429688 1162.769531 2613.601562 C 1187.308594 2627.820312 1212.691406 2642.519531 1233.480469 2664.871094 C 1249.769531 2682.421875 1262.28125 2706.179688 1266.871094 2731.199219 C 1289.730469 2732.878906 1312.800781 2732.941406 1335.71875 2731.46875 C 1339.171875 2711.371094 1347.269531 2691.898438 1359.390625 2676.03125 C 1389.449219 2636.578125 1435.378906 2615.941406 1475.488281 2600.21875 C 1477.410156 2457.929688 1481.371094 2147.039062 1481.371094 2147.039062 C 1483.53125 2159.160156 1485.539062 2171.21875 1487.488281 2183.21875 C 1511.851562 2332.171875 1522.738281 2477.640625 1519.921875 2616.058594 C 1519.800781 2620.769531 1518.238281 2625.238281 1515.570312 2628.871094 C 1513.078125 2632.230469 1509.691406 2634.929688 1505.578125 2636.460938 C 1457.609375 2654.941406 1418.96875 2671.558594 1394.878906 2703.121094 C 1381.828125 2720.21875 1375.828125 2744.789062 1379.519531 2765.671875 C 1381.320312 2775.660156 1386.179688 2789.339844 1399.261719 2797.679688 C 1412.070312 2805.839844 1429.890625 2807.578125 1447.078125 2808.660156 C 1447.648438 2808.691406 1448.191406 2808.75 1448.699219 2808.78125 C 1451.371094 2780.820312 1460.101562 2753.488281 1474.5 2729.398438 C 1471.589844 2756.371094 1473.390625 2783.820312 1479.75 2810.25 C 1503.121094 2811.03125 1525.828125 2811.089844 1547.789062 2810.339844 C 1548.898438 2779.230469 1557.75 2748.390625 1573.53125 2721.539062 C 1575.210938 2750.578125 1576.828125 2779.621094 1578.480469 2808.691406 C 1663.289062 2802.628906 1737.601562 2784.121094 1803.148438 2752.710938 C 1805.550781 2743.800781 1807.859375 2734.890625 1810.140625 2725.949219 C 1864.199219 2514.300781 1892.25 2294.128906 1893.511719 2070.898438 C 1894.679688 1880.039062 1876.019531 1691.191406 1838.25 1507.828125 Z M 2041.230469 2591.429688 C 2031.570312 2586.539062 2026.800781 2575.46875 2029.890625 2565.089844 C 2058.71875 2468.488281 2063.640625 2361.628906 2044.109375 2256.121094 C 2038.199219 2224.199219 2029.199219 2187.898438 2007.359375 2160.871094 C 1991.96875 2141.789062 1964.28125 2124.71875 1937.308594 2128.738281 C 1931.609375 2348.910156 1900.261719 2565.691406 1843.800781 2774.011719 C 1890.089844 2779.859375 1937.28125 2781.058594 1983.871094 2777.609375 C 1988.671875 2757.269531 1990.078125 2736.121094 1987.800781 2715.359375 C 2000.851562 2732.640625 2008.949219 2753.519531 2011.289062 2775.03125 C 2026.648438 2773.289062 2041.890625 2771.070312 2057.011719 2768.28125 C 2060.640625 2767.621094 2064.480469 2766.839844 2068.410156 2766 C 2072.671875 2745.269531 2072.488281 2723.609375 2067.660156 2702.96875 C 2074.289062 2713.171875 2082.328125 2722.46875 2088.179688 2733.121094 C 2092.410156 2740.828125 2095.378906 2749.558594 2095.46875 2758.230469 C 2112.601562 2751.871094 2128.46875 2742.328125 2136.898438 2727.511719 C 2151.058594 2702.550781 2139.988281 2669.371094 2123.699219 2649.121094 C 2103.660156 2624.191406 2073.238281 2607.601562 2041.230469 2591.429688 Z M 2757.539062 2067.691406 C 2739.03125 2092.140625 2712.539062 2110.5 2682.359375 2118.210938 C 2674.46875 2120.191406 2666.101562 2117.761719 2660.550781 2111.820312 C 2654.96875 2105.878906 2653.078125 2097.390625 2655.601562 2089.648438 C 2673.808594 2033.550781 2670.421875 1970.550781 2646.148438 1912.261719 C 2629.199219 1871.550781 2602.679688 1835.160156 2569.441406 1806.359375 C 2569.800781 1831.589844 2565.179688 1856.851562 2555.640625 1880.039062 C 2552.429688 1887.808594 2545.199219 1893.089844 2536.859375 1893.78125 C 2528.488281 1894.46875 2520.480469 1890.480469 2516.070312 1883.429688 C 2480.96875 1827.539062 2407.679688 1793.039062 2329.320312 1795.53125 C 2280 1797.121094 2232.148438 1811.671875 2190.601562 1829.398438 C 2181.511719 1833.269531 2172.71875 1837.289062 2164.289062 1841.339844 C 2238.390625 1870.949219 2298.300781 1931.160156 2326.859375 2007.660156 C 2359.679688 2095.621094 2350.019531 2199.390625 2300.910156 2285.308594 C 2257.648438 2361.058594 2183.699219 2422.5 2096.820312 2455.53125 C 2093.160156 2491.109375 2086.859375 2526.089844 2077.800781 2560.019531 C 2082.238281 2562.328125 2086.558594 2564.730469 2090.878906 2567.160156 C 2100.328125 2572.53125 2109.570312 2578.171875 2118.328125 2584.289062 C 2187.148438 2600.789062 2302.378906 2603.371094 2477.730469 2536.800781 C 2451.03125 2527.589844 2425.949219 2513.941406 2403.691406 2496.300781 C 2396.128906 2490.328125 2393.28125 2480.160156 2396.578125 2471.101562 C 2399.910156 2462.039062 2408.640625 2456.160156 2418.300781 2456.488281 C 2534.429688 2460.390625 2645.011719 2408.28125 2707.261719 2320.679688 C 2758.441406 2248.53125 2776.320312 2154 2757.539062 2067.691406 "/>
<path fill-rule="nonzero" fill="rgb(98.826599%, 98.826599%, 98.826599%)" fill-opacity="1" d="M 1816.648438 1411.859375 C 1771.199219 1429.109375 1720.949219 1435.53125 1672.019531 1440.300781 C 1562.011719 1450.890625 1460.25 1458.328125 1361.011719 1462.980469 C 1350.089844 1495.441406 1333.710938 1523.191406 1312.710938 1544.671875 C 1290.300781 1567.589844 1262.699219 1578.898438 1229.070312 1578.898438 C 1215.148438 1578.898438 1200.179688 1576.949219 1184.101562 1573.078125 C 1136.761719 1561.621094 1107.808594 1519.289062 1091.070312 1468.46875 C 975.390625 1467.570312 864.269531 1462.46875 752.851562 1452.839844 C 748.378906 1468.679688 744.121094 1484.578125 740.039062 1500.480469 L 740.039062 1500.511719 C 791.101562 1592.308594 883.261719 1656.269531 954.03125 1735.558594 C 1064.699219 1859.578125 1123.738281 2028.328125 1114.621094 2194.320312 C 1115.851562 2212.710938 1116.421875 2230.558594 1116.300781 2248.019531 C 1116.300781 2248.050781 1116.300781 2248.050781 1116.300781 2248.109375 L 1142.101562 2601.359375 C 1148.730469 2605.410156 1155.628906 2609.429688 1162.828125 2613.601562 C 1187.371094 2627.820312 1212.75 2642.519531 1233.539062 2664.871094 C 1249.828125 2682.421875 1262.339844 2706.179688 1266.929688 2731.199219 C 1289.789062 2732.878906 1312.859375 2732.941406 1335.78125 2731.46875 C 1339.230469 2711.371094 1347.328125 2691.898438 1359.449219 2676.03125 C 1389.511719 2636.578125 1435.441406 2615.941406 1475.550781 2600.21875 C 1477.46875 2457.929688 1481.429688 2147.039062 1481.429688 2147.039062 C 1483.589844 2159.160156 1485.601562 2171.21875 1487.550781 2183.21875 C 1487.398438 2175.660156 1487.128906 2168.101562 1486.949219 2160.601562 C 1488.210938 2037.390625 1531.351562 1914.960938 1607.640625 1818.148438 C 1660.289062 1751.339844 1727.640625 1696.980469 1778.578125 1628.820312 C 1805.398438 1592.941406 1827.421875 1551.03125 1838.21875 1507.800781 C 1831.621094 1475.640625 1824.449219 1443.691406 1816.648438 1411.859375 Z M 1200.808594 2695.289062 C 1184.550781 2677.828125 1163.101562 2665.441406 1140.449219 2652.269531 C 1129.320312 2645.851562 1117.828125 2639.191406 1106.851562 2631.808594 C 1102.351562 2628.75 1099.140625 2624.21875 1097.789062 2619.058594 C 1071.300781 2617.109375 1044.300781 2619.480469 1018.261719 2624.761719 C 969.390625 2634.660156 923.160156 2654.398438 877.53125 2674.53125 C 854.851562 2684.519531 831.058594 2695.621094 817.261719 2716.199219 C 815.101562 2719.410156 813.238281 2722.828125 811.738281 2726.308594 L 811.738281 2726.339844 C 818.429688 2743.890625 825.421875 2761.351562 832.648438 2778.75 C 901.859375 2800.289062 974.910156 2812.289062 1047.78125 2814.449219 C 1052.128906 2791.410156 1052.398438 2767.648438 1048.378906 2744.578125 C 1064.640625 2764.890625 1075.769531 2789.21875 1080.929688 2814.691406 C 1097.371094 2814.480469 1113.78125 2813.851562 1130.128906 2812.589844 C 1135.410156 2812.230469 1140.421875 2811.691406 1145.191406 2811.089844 C 1149.628906 2788.800781 1149.449219 2765.578125 1144.53125 2743.378906 C 1158.839844 2758.648438 1169.429688 2777.339844 1175.25 2797.441406 C 1175.941406 2799.808594 1176.511719 2802.238281 1176.929688 2804.699219 C 1196.128906 2798.851562 1209.179688 2790.121094 1216.828125 2778.089844 C 1232.851562 2752.769531 1220.550781 2716.53125 1200.808594 2695.289062 Z M 1590.179688 2641.019531 C 1565.761719 2634.960938 1540.710938 2629.890625 1515.691406 2628.871094 C 1513.199219 2632.230469 1509.808594 2634.929688 1505.699219 2636.460938 C 1457.730469 2654.941406 1419.089844 2671.558594 1395 2703.121094 C 1381.949219 2720.21875 1375.949219 2744.789062 1379.640625 2765.671875 C 1381.441406 2775.660156 1386.300781 2789.339844 1399.378906 2797.679688 C 1412.191406 2805.839844 1430.011719 2807.578125 1447.199219 2808.660156 C 1447.769531 2808.691406 1448.308594 2808.75 1448.820312 2808.78125 C 1451.488281 2780.820312 1460.21875 2753.488281 1474.621094 2729.398438 C 1471.710938 2756.371094 1473.511719 2783.820312 1479.871094 2810.25 C 1503.238281 2811.03125 1525.949219 2811.089844 1547.910156 2810.339844 C 1549.019531 2779.230469 1557.871094 2748.390625 1573.648438 2721.539062 C 1575.328125 2750.578125 1576.949219 2779.621094 1578.601562 2808.691406 C 1663.410156 2802.628906 1737.71875 2784.121094 1803.269531 2752.710938 C 1805.671875 2743.800781 1807.980469 2734.890625 1810.261719 2725.949219 C 1740.839844 2688.601562 1666.710938 2660.039062 1590.179688 2641.019531 Z M 2757.539062 2067.691406 C 2739.03125 2092.140625 2712.539062 2110.5 2682.359375 2118.210938 C 2674.46875 2120.191406 2666.101562 2117.761719 2660.550781 2111.820312 C 2654.96875 2105.878906 2653.078125 2097.390625 2655.601562 2089.648438 C 2673.808594 2033.550781 2670.421875 1970.550781 2646.148438 1912.261719 C 2629.199219 1871.550781 2602.679688 1835.160156 2569.441406 1806.359375 C 2569.800781 1831.589844 2565.179688 1856.851562 2555.640625 1880.039062 C 2552.429688 1887.808594 2545.199219 1893.089844 2536.859375 1893.78125 C 2528.488281 1894.46875 2520.480469 1890.480469 2516.070312 1883.429688 C 2480.96875 1827.539062 2407.679688 1793.039062 2329.320312 1795.53125 C 2280 1797.121094 2232.148438 1811.671875 2190.601562 1829.398438 C 2261.191406 1820.25 2335.410156 1838.128906 2393.128906 1880.011719 C 2464.949219 1932.058594 2500.921875 1989.421875 2510.070312 2023.199219 C 2525.28125 2017.019531 2550.988281 1999.949219 2567.578125 1977.539062 C 2562.570312 2077.46875 2524.410156 2175.449219 2460.449219 2252.429688 C 2500.621094 2228.761719 2540.761719 2205.121094 2580.929688 2181.421875 C 2499.691406 2314.53125 2371.800781 2418.539062 2224.921875 2470.859375 C 2254.289062 2476.351562 2283.660156 2481.839844 2313 2487.300781 C 2244.511719 2526.960938 2168.878906 2554.050781 2090.851562 2567.128906 C 2100.300781 2572.5 2109.539062 2578.140625 2118.300781 2584.261719 C 2187.121094 2600.761719 2302.351562 2603.339844 2477.699219 2536.769531 C 2451 2527.558594 2425.921875 2513.910156 2403.660156 2496.269531 C 2396.101562 2490.300781 2393.25 2480.128906 2396.550781 2471.070312 C 2399.878906 2462.011719 2408.609375 2456.128906 2418.269531 2456.460938 C 2534.398438 2460.359375 2644.980469 2408.25 2707.230469 2320.648438 C 2758.441406 2248.53125 2776.320312 2154 2757.539062 2067.691406 Z M 1332.058594 999.839844 C 1315.800781 985.351562 1290.148438 982.648438 1271.25 993.511719 C 1264.441406 997.410156 1258.078125 1003.679688 1257.511719 1011.511719 C 1256.910156 1020.089844 1263.328125 1027.679688 1270.5 1032.359375 C 1284.75 1041.691406 1303.621094 1043.519531 1319.371094 1037.160156 C 1326.390625 1034.308594 1333.019531 1029.71875 1336.441406 1022.941406 C 1339.828125 1016.160156 1339.648438 1006.621094 1332.058594 999.839844 Z M 1621.769531 737.429688 C 1603.199219 733.648438 1582.800781 746.699219 1578.480469 765.121094 C 1574.101562 783.601562 1586.429688 804.390625 1604.730469 809.371094 C 1623.058594 814.378906 1644.210938 802.710938 1649.820312 784.589844 C 1655.398438 766.46875 1645.171875 742.140625 1621.769531 737.429688 Z M 934.171875 737.429688 C 915.601562 733.648438 895.199219 746.699219 890.878906 765.121094 C 886.5 783.601562 898.828125 804.390625 917.128906 809.371094 C 935.460938 814.378906 956.609375 802.710938 962.21875 784.589844 C 967.800781 766.46875 957.570312 742.140625 934.171875 737.429688 Z M 1482.71875 1112.308594 C 1462.078125 1088.460938 1431.628906 1045.769531 1419.359375 1016.730469 C 1369.078125 897.511719 1362.660156 787.859375 1365.238281 658.46875 C 1367.851562 529.140625 1384.949219 400.46875 1391.371094 271.261719 C 1391.910156 260.699219 1392.179688 249.480469 1389.691406 239.339844 C 1357.46875 231 1324.53125 225.121094 1291.140625 221.699219 C 1220.460938 214.558594 1148.039062 219.148438 1078.199219 234.78125 C 1073.070312 254.160156 1076.28125 276.570312 1079.878906 296.96875 C 1102.828125 428.941406 1120.050781 562.980469 1111.738281 696.660156 C 1103.398438 830.398438 1068.300781 964.648438 993.71875 1075.949219 C 967.769531 1114.710938 946.320312 1134.808594 944.039062 1181.398438 C 963 1209.511719 989.28125 1244.609375 1010.460938 1258.109375 C 1047.988281 1282.078125 1099.738281 1284.238281 1139.160156 1263.390625 C 1172.429688 1245.808594 1195.738281 1212.898438 1202.699219 1175.699219 C 1175.941406 1170.269531 1150.171875 1151.519531 1128.328125 1133.789062 C 1100.550781 1111.199219 1080.480469 1077.960938 1077.960938 1042.230469 C 1076.488281 1020.808594 1082.191406 997.589844 1098.570312 983.699219 C 1110.511719 973.53125 1126.441406 969.691406 1141.828125 966.808594 C 1196.640625 956.699219 1253.128906 955.800781 1308.210938 964.289062 C 1324.828125 966.839844 1342.410156 970.828125 1354.109375 982.890625 C 1368.480469 997.679688 1370.128906 1020.75 1366.980469 1041.148438 C 1357.140625 1104.601562 1305.390625 1158.871094 1243.289062 1173.75 C 1254.390625 1205.789062 1277.96875 1234.019531 1307.878906 1249.5 C 1345.53125 1268.96875 1394.039062 1268.578125 1431.421875 1248.570312 C 1453.410156 1236.78125 1484.640625 1204.648438 1506.601562 1180.230469 C 1508.519531 1156.679688 1498.078125 1130.160156 1482.71875 1112.308594 "/>
</svg>
